{
  "source": "C:\\Users\\Peter\\Desktop\\stuff\\MIUN\\quantitative_research\\video_compression\\videos\\BVI-HD\\BVI-HD_CDVL_videos\\ORIG\\Surfers_1920x1080_30fps.mp4",
  "output": "C:\\Users\\Peter\\Desktop\\stuff\\MIUN\\quantitative_research\\video_compression\\compressed_videos\\BVI-HD\\av1\\2.5\\Surfers_1920x1080_30fps_av1.mkv",
  "codec": "av1",
  "ok": "Input #0, mov,mp4,m4a,3gp,3g2,mj2, from 'C:\\Users\\Peter\\Desktop\\stuff\\MIUN\\quantitative_research\\video_compression\\videos\\BVI-HD\\BVI-HD_CDVL_videos\\ORIG\\Surfers_1920x1080_30fps.mp4':\n  Metadata:\n    major_brand     : isom\n    minor_version   : 512\n    compatible_brands: isomiso2avc1mp41\n    encoder         : Lavf54.28.101\n  Duration: 00:00:05.00, start: 0.000000, bitrate: 232762 kb/s\n  Stream #0:0[0x1](und): Video: h264 (High 4:4:4 Predictive) (avc1 / 0x31637661), yuv420p(progressive), 1920x1080, 232759 kb/s, 30 fps, 30 tbr, 30 tbn (default)\n    Metadata:\n      handler_name    : VideoHandler\n      vendor_id       : [0][0][0][0]\n[out#0/matroska @ 000001eae85c1200] Codec AVOption b:a (set bitrate (in bits/s)) has not been used for any stream. The most likely reason is either wrong type (e.g. a video option with no video streams) or that it is a private option of some decoder which was not actually used for any stream.\nStream mapping:\n  Stream #0:0 -> #0:0 (h264 (native) -> av1 (libsvtav1))\nPress [q] to stop, [?] for help\nSvt[info]: -------------------------------------------\nSvt[info]: SVT [version]:\tSVT-AV1 Encoder Lib v3.1.0-19-g6ecfe8ec\nSvt[info]: SVT [build]  :\tGCC 15.2.0\t 64 bit\nSvt[info]: LIB Build date: Aug 17 2025 11:37:13\nSvt[info]: -------------------------------------------\nSvt[info]: Level of Parallelism: 5\nSvt[info]: Number of PPCS 93\nSvt[info]: [asm level on system : up to avx2]\nSvt[info]: [asm level selected : up to avx2]\nSvt[info]: -------------------------------------------\nSvt[info]: SVT [config]: main profile\ttier (auto)\tlevel (auto)\nSvt[info]: SVT [config]: width / height / fps numerator / fps denominator \t\t: 1920 / 1080 / 30 / 1\nSvt[info]: SVT [config]: bit-depth / color format \t\t\t\t\t: 8 / YUV420\nSvt[info]: SVT [config]: preset / tune / pred struct \t\t\t\t\t: 4 / PSNR / random access\nSvt[info]: SVT [config]: gop size / mini-gop size / key-frame type \t\t\t: 161 / 16 / key frame\nSvt[info]: SVT [config]: BRC mode / target bitrate (kbps)\t\t\t\t: VBR / 2500 \nSvt[info]: SVT [config]: AQ mode / Variance Boost \t\t\t\t\t: 2 / 0\nSvt[info]: SVT [config]: sharpness / luminance-based QP bias \t\t\t\t: 0 / 0\nSvt[info]: SVT [config]: QP scale compress strength \t\t\t\t\t: 0\nSvt[info]: -------------------------------------------\nOutput #0, matroska, to 'C:\\Users\\Peter\\Desktop\\stuff\\MIUN\\quantitative_research\\video_compression\\compressed_videos\\BVI-HD\\av1\\2.5\\Surfers_1920x1080_30fps_av1.mkv':\n  Metadata:\n    major_brand     : isom\n    minor_version   : 512\n    compatible_brands: isomiso2avc1mp41\n    encoder         : Lavf62.3.100\n  Stream #0:0(und): Video: av1 (AV01 / 0x31305641), yuv420p(tv, progressive), 1920x1080, q=2-31, 2500 kb/s, 30 fps, 1k tbn (default)\n    Metadata:\n      encoder         : Lavc62.11.100 libsvtav1\n      handler_name    : VideoHandler\n      vendor_id       : [0][0][0][0]\n    Side data:\n      cpb: bitrate max/min/avg: 0/0/2500000 buffer size: 2500000 vbv_delay: N/A\nframe=    0 fps=0.0 q=0.0 size=       0KiB time=N/A bitrate=N/A speed=N/A elapsed=0:00:01.03    \nframe=    0 fps=0.0 q=0.0 size=       0KiB time=N/A bitrate=N/A speed=N/A elapsed=0:00:01.56    \nframe=    0 fps=0.0 q=0.0 size=       0KiB time=N/A bitrate=N/A speed=N/A elapsed=0:00:02.10    \nframe=    0 fps=0.0 q=0.0 size=       0KiB time=N/A bitrate=N/A speed=N/A elapsed=0:00:02.62    \nframe=    1 fps=0.3 q=25.0 size=       1KiB time=00:00:00.00 bitrate=N/A speed=   0x elapsed=0:00:03.14    \nframe=    1 fps=0.3 q=25.0 size=       1KiB time=00:00:00.00 bitrate=N/A speed=   0x elapsed=0:00:03.65    \nframe=    4 fps=1.0 q=42.0 size=       1KiB time=00:00:00.10 bitrate=  57.0kbits/s speed=0.024x elapsed=0:00:04.17    \nframe=    7 fps=1.5 q=38.0 size=       1KiB time=00:00:00.20 bitrate=  28.5kbits/s speed=0.0426x elapsed=0:00:04.69    \nframe=   10 fps=1.9 q=38.0 size=       1KiB time=00:00:00.30 bitrate=  19.0kbits/s speed=0.0573x elapsed=0:00:05.23    \nframe=   14 fps=2.4 q=38.0 size=       1KiB time=00:00:00.43 bitrate=  13.2kbits/s speed=0.0751x elapsed=0:00:05.76    \nframe=   17 fps=2.7 q=30.0 size=       1KiB time=00:00:00.53 bitrate=  10.7kbits/s speed=0.0845x elapsed=0:00:06.30    \nframe=   21 fps=3.1 q=35.0 size=       1KiB time=00:00:00.66 bitrate=   8.6kbits/s speed=0.0977x elapsed=0:00:06.82    \nframe=   23 fps=3.1 q=38.0 size=       1KiB time=00:00:00.73 bitrate=   7.8kbits/s speed=0.0997x elapsed=0:00:07.35    \nframe=   27 fps=3.4 q=38.0 size=       1KiB time=00:00:00.86 bitrate=   6.6kbits/s speed=0.11x elapsed=0:00:07.89    \nframe=   32 fps=3.8 q=41.0 size=       1KiB time=00:00:01.03 bitrate=   5.5kbits/s speed=0.123x elapsed=0:00:08.39    \nframe=   36 fps=4.0 q=41.0 size=       1KiB time=00:00:01.16 bitrate=   4.9kbits/s speed=0.131x elapsed=0:00:08.91    \nframe=   38 fps=4.0 q=41.0 size=       1KiB time=00:00:01.23 bitrate=   4.6kbits/s speed=0.131x elapsed=0:00:09.43    \nframe=   41 fps=4.1 q=35.0 size=       1KiB time=00:00:01.33 bitrate=   4.3kbits/s speed=0.134x elapsed=0:00:09.95    \nframe=   45 fps=4.3 q=36.0 size=       1KiB time=00:00:01.46 bitrate=   3.9kbits/s speed=0.14x elapsed=0:00:10.47    \nframe=   49 fps=4.5 q=27.0 size=       1KiB time=00:00:01.60 bitrate=   3.6kbits/s speed=0.146x elapsed=0:00:10.97    \nframe=   55 fps=4.8 q=41.0 size=       1KiB time=00:00:01.80 bitrate=   3.2kbits/s speed=0.156x elapsed=0:00:11.50    \nframe=   57 fps=4.7 q=36.0 size=       1KiB time=00:00:01.86 bitrate=   3.1kbits/s speed=0.155x elapsed=0:00:12.03    \nframe=   61 fps=4.9 q=38.0 size=       1KiB time=00:00:02.00 bitrate=   2.9kbits/s speed=0.159x elapsed=0:00:12.55    \nframe=   65 fps=4.9 q=30.0 size=       1KiB time=00:00:02.13 bitrate=   2.7kbits/s speed=0.162x elapsed=0:00:13.14    \nframe=   73 fps=5.3 q=38.0 size=       1KiB time=00:00:02.40 bitrate=   2.4kbits/s speed=0.176x elapsed=0:00:13.65    \nframe=   75 fps=5.3 q=42.0 size=       1KiB time=00:00:02.46 bitrate=   2.3kbits/s speed=0.174x elapsed=0:00:14.16    \nframe=   81 fps=5.5 q=32.0 size=       1KiB time=00:00:02.66 bitrate=   2.1kbits/s speed=0.182x elapsed=0:00:14.68    \nframe=   85 fps=5.6 q=42.0 size=       1KiB time=00:00:02.80 bitrate=   2.0kbits/s speed=0.184x elapsed=0:00:15.19    \nframe=   89 fps=5.7 q=39.0 size=       1KiB time=00:00:02.93 bitrate=   1.9kbits/s speed=0.187x elapsed=0:00:15.72    \nframe=   93 fps=5.7 q=39.0 size=       1KiB time=00:00:03.06 bitrate=   1.9kbits/s speed=0.189x elapsed=0:00:16.24    \nframe=   97 fps=5.8 q=33.0 size=       1KiB time=00:00:03.20 bitrate=   1.8kbits/s speed=0.191x elapsed=0:00:16.76    \nframe=  101 fps=5.8 q=43.0 size=       1KiB time=00:00:03.33 bitrate=   1.7kbits/s speed=0.193x elapsed=0:00:17.27    \nframe=  105 fps=5.9 q=39.0 size=       1KiB time=00:00:03.46 bitrate=   1.6kbits/s speed=0.195x elapsed=0:00:17.79    \nframe=  109 fps=5.9 q=41.0 size=       1KiB time=00:00:03.60 bitrate=   1.6kbits/s speed=0.196x elapsed=0:00:18.32    \nframe=  115 fps=6.1 q=43.0 size=       1KiB time=00:00:03.80 bitrate=   1.5kbits/s speed=0.201x elapsed=0:00:18.86    \nframe=  121 fps=6.2 q=41.0 size=       1KiB time=00:00:04.00 bitrate=   1.4kbits/s speed=0.206x elapsed=0:00:19.38    \nframe=  121 fps=6.1 q=41.0 size=       1KiB time=00:00:04.00 bitrate=   1.4kbits/s speed=0.201x elapsed=0:00:19.90    \nframe=  125 fps=6.1 q=42.0 size=       1KiB time=00:00:04.13 bitrate=   1.4kbits/s speed=0.202x elapsed=0:00:20.42    \nframe=  131 fps=6.3 q=45.0 size=       1KiB time=00:00:04.33 bitrate=   1.3kbits/s speed=0.207x elapsed=0:00:20.94    \nframe=  137 fps=6.4 q=42.0 size=       1KiB time=00:00:04.53 bitrate=   1.3kbits/s speed=0.211x elapsed=0:00:21.45    \nframe=  139 fps=6.3 q=45.0 size=       1KiB time=00:00:04.60 bitrate=   1.2kbits/s speed=0.209x elapsed=0:00:21.97    \n[out#0/matroska @ 000001eae85c1200] video:1665KiB audio:0KiB subtitle:0KiB other streams:0KiB global headers:0KiB muxing overhead: 0.085702%\nframe=  150 fps=6.7 q=45.0 Lsize=    1666KiB time=00:00:04.96 bitrate=2748.2kbits/s speed=0.222x elapsed=0:00:22.38    \n",
  "seconds": 23.041531324386597,
  "probe_out": {}
}